<svg width="900" height="900" viewBox="0 0 900 900" fill="none" xmlns="http://www.w3.org/2000/svg">
  <g transform="translate(170 110)">
    <path d="M25 190C70 111 160 58 262 58C364 58 454 111 499 190C454 269 364 322 262 322C160 322 70 269 25 190Z" stroke="#0F172A" stroke-width="22" stroke-linecap="round" stroke-linejoin="round"/>
    <circle cx="262" cy="190" r="68" fill="#38BDF8"/>
    <g transform="rotate(-8 262 190)">
      <rect x="199" y="140" width="126" height="100" rx="18" fill="#F8FAFC" stroke="#0F172A" stroke-width="12"/>
      <rect x="281" y="154" width="22" height="22" rx="5" fill="#38BDF8"/>
      <path d="M221 174H267" stroke="#0F172A" stroke-width="9" stroke-linecap="round"/>
      <path d="M221 200H288" stroke="#0F172A" stroke-width="9" stroke-linecap="round"/>
    </g>
    <circle cx="387" cy="110" r="22" fill="#38BDF8"/>
  </g>
  <g fill="#0F172A" font-family="Arial, Helvetica, sans-serif" text-anchor="middle">
    <text x="450" y="610" font-size="86" font-weight="800" letter-spacing="1">EYES ON</text>
    <text x="450" y="704" font-size="86" font-weight="800" letter-spacing="1">YOUR BUSINESS</text>
    <text x="450" y="778" font-size="32" font-weight="600" fill="#475569">Local postcard advertising</text>
  </g>
</svg>