<svg width="1400" height="420" viewBox="0 0 1400 420" fill="none" xmlns="http://www.w3.org/2000/svg">
  <g transform="translate(40 50)">
    <path d="M18 158C54 95 126 52 208 52C290 52 362 95 398 158C362 221 290 264 208 264C126 264 54 221 18 158Z" stroke="#0F172A" stroke-width="18" stroke-linecap="round" stroke-linejoin="round"/>
    <circle cx="208" cy="158" r="54" fill="#38BDF8"/>
    <g transform="rotate(-8 208 158)">
      <rect x="158" y="118" width="100" height="80" rx="16" fill="#F8FAFC" stroke="#0F172A" stroke-width="10"/>
      <rect x="223" y="129" width="18" height="18" rx="4" fill="#38BDF8"/>
      <path d="M176 145H212" stroke="#0F172A" stroke-width="8" stroke-linecap="round"/>
      <path d="M176 166H228" stroke="#0F172A" stroke-width="8" stroke-linecap="round"/>
    </g>
    <circle cx="308" cy="97" r="18" fill="#38BDF8" opacity="0.95"/>
  </g>
  <g fill="#0F172A" font-family="Arial, Helvetica, sans-serif">
    <text x="500" y="170" font-size="76" font-weight="800" letter-spacing="1">EYES ON</text>
    <text x="500" y="255" font-size="76" font-weight="800" letter-spacing="1">YOUR BUSINESS</text>
    <text x="503" y="315" font-size="30" font-weight="600" fill="#475569">Local postcard advertising for real local reach</text>
  </g>
</svg>